#tb 0: 1/44100
#media_type 0: audio
#codec_id 0: pcm_s16le
#sample_rate 0: 44100
#channel_layout_name 0: 9 channels
0,          0,          0,     1024,    18432, 0xc565c124
0,       1024,       1024,     1024,    18432, 0xfe3e0450
0,       2048,       2048,     1024,    18432, 0xff8db816
0,       3072,       3072,     1024,    18432, 0xa74dcce0
0,       4096,       4096,     1024,    18432, 0x8980dc34
0,       5120,       5120,     1024,    18432, 0xaef4f4cc
0,       6144,       6144,     1024,    18432, 0x947abfa0
0,       7168,       7168,     1024,    18432, 0xe5cde624
0,       8192,       8192,     1024,    18432, 0x7ba1b812
0,       9216,       9216,     1024,    18432, 0x1166ca13
0,      10240,      10240,     1024,    18432, 0x0fd40143
0,      11264,      11264,     1024,    18432, 0x8aecc408
0,      12288,      12288,     1024,    18432, 0x3da6de0b
0,      13312,      13312,     1024,    18432, 0x95bd097d
0,      14336,      14336,     1024,    18432, 0x8eacb965
0,      15360,      15360,     1024,    18432, 0x3daf2b0a
0,      16384,      16384,     1024,    18432, 0xe69218d2
0,      17408,      17408,     1024,    18432, 0x0b14c778
0,      18432,      18432,     1024,    18432, 0xa28cba24
0,      19456,      19456,     1024,    18432, 0x77edf299
